<?xml version="1.0" encoding="UTF-8" standalone="no"?>
<!DOCTYPE svg PUBLIC "-//W3C//DTD SVG 1.1//EN"
 "http://www.w3.org/Graphics/SVG/1.1/DTD/svg11.dtd">
<!-- Generated by graphviz version 2.40.1 (20161225.0304)
 -->
<!-- Title: inheritance1816eee041 Pages: 1 -->
<svg width="417pt" height="422pt"
 viewBox="0.00 0.00 416.62 422.00" xmlns="http://www.w3.org/2000/svg" xmlns:xlink="http://www.w3.org/1999/xlink">
<g id="graph0" class="graph" transform="scale(1 1) rotate(0) translate(4 418)">
<title>inheritance1816eee041</title>
<polygon fill="#ffffff" stroke="transparent" points="-4,4 -4,-418 412.625,-418 412.625,4 -4,4"/>
<!-- ABC -->
<g id="node1" class="node">
<title>ABC</title>
<g id="a_node1"><a xlink:title="Helper class that provides a standard way to create an ABC using">
<polygon fill="none" stroke="#000000" stroke-width=".5" points="54,-126 0,-126 0,-108 54,-108 54,-126"/>
<text text-anchor="middle" x="27" y="-114" font-family="Vera Sans, DejaVu Sans, Liberation Sans, Arial, Helvetica, sans" font-size="10.00" fill="#000000">ABC</text>
</a>
</g>
</g>
<!-- Activation -->
<g id="node2" class="node">
<title>Activation</title>
<g id="a_node2"><a xlink:href="../nnweaver.html#nnweaver.activations.Activation" xlink:title="Abstract base class for classes that implement an activation function." target="_top">
<polygon fill="none" stroke="#000000" stroke-width=".5" points="153.422,-306 93.7108,-306 93.7108,-288 153.422,-288 153.422,-306"/>
<text text-anchor="middle" x="123.5664" y="-294" font-family="Vera Sans, DejaVu Sans, Liberation Sans, Arial, Helvetica, sans" font-size="10.00" fill="#000000">Activation</text>
</a>
</g>
</g>
<!-- ABC&#45;&gt;Activation -->
<g id="edge1" class="edge">
<title>ABC&#45;&gt;Activation</title>
<path fill="none" stroke="#000000" stroke-width=".5" d="M43.9303,-126.1069C47.584,-128.6325 51.1887,-131.6227 54,-135 92.7137,-181.5071 113.1213,-252.7955 120.409,-282.8554"/>
<polygon fill="#000000" stroke="#000000" stroke-width=".5" points="118.7653,-283.5097 121.6185,-287.9732 122.1715,-282.7047 118.7653,-283.5097"/>
</g>
<!-- Callback -->
<g id="node3" class="node">
<title>Callback</title>
<g id="a_node3"><a xlink:href="../nnweaver.html#nnweaver.callbacks.Callback" xlink:title="Abstract base class for classes that provide methods that can be" target="_top">
<polygon fill="none" stroke="#000000" stroke-width=".5" points="150.9171,-162 96.2157,-162 96.2157,-144 150.9171,-144 150.9171,-162"/>
<text text-anchor="middle" x="123.5664" y="-150" font-family="Vera Sans, DejaVu Sans, Liberation Sans, Arial, Helvetica, sans" font-size="10.00" fill="#000000">Callback</text>
</a>
</g>
</g>
<!-- ABC&#45;&gt;Callback -->
<g id="edge2" class="edge">
<title>ABC&#45;&gt;Callback</title>
<path fill="none" stroke="#000000" stroke-width=".5" d="M51.3678,-126.0843C64.4054,-130.9448 80.5555,-136.9655 94.2729,-142.0794"/>
<polygon fill="#000000" stroke="#000000" stroke-width=".5" points="93.9101,-143.8117 99.2064,-143.9186 95.1327,-140.5322 93.9101,-143.8117"/>
</g>
<!-- Optimizer -->
<g id="node5" class="node">
<title>Optimizer</title>
<g id="a_node5"><a xlink:href="../nnweaver.html#nnweaver.optimizers.Optimizer" xlink:title="Optimizer" target="_top">
<polygon fill="none" stroke="#000000" stroke-width=".5" points="152.85,-126 94.2828,-126 94.2828,-108 152.85,-108 152.85,-126"/>
<text text-anchor="middle" x="123.5664" y="-114" font-family="Vera Sans, DejaVu Sans, Liberation Sans, Arial, Helvetica, sans" font-size="10.00" fill="#000000">Optimizer</text>
</a>
</g>
</g>
<!-- ABC&#45;&gt;Optimizer -->
<g id="edge11" class="edge">
<title>ABC&#45;&gt;Optimizer</title>
<path fill="none" stroke="#000000" stroke-width=".5" d="M54.1561,-117C64.9924,-117 77.5971,-117 89.0687,-117"/>
<polygon fill="#000000" stroke="#000000" stroke-width=".5" points="89.2493,-118.7501 94.2492,-117 89.2492,-115.2501 89.2493,-118.7501"/>
</g>
<!-- Regularizer -->
<g id="node9" class="node">
<title>Regularizer</title>
<g id="a_node9"><a xlink:href="../nnweaver.html#nnweaver.regularizers.Regularizer" xlink:title="Abstract base class for classes that implements functions on the" target="_top">
<polygon fill="none" stroke="#000000" stroke-width=".5" points="157.1994,-90 89.9335,-90 89.9335,-72 157.1994,-72 157.1994,-90"/>
<text text-anchor="middle" x="123.5664" y="-78" font-family="Vera Sans, DejaVu Sans, Liberation Sans, Arial, Helvetica, sans" font-size="10.00" fill="#000000">Regularizer</text>
</a>
</g>
</g>
<!-- ABC&#45;&gt;Regularizer -->
<g id="edge14" class="edge">
<title>ABC&#45;&gt;Regularizer</title>
<path fill="none" stroke="#000000" stroke-width=".5" d="M51.3678,-107.9157C64.4054,-103.0552 80.5555,-97.0345 94.2729,-91.9206"/>
<polygon fill="#000000" stroke="#000000" stroke-width=".5" points="95.1327,-93.4678 99.2064,-90.0814 93.9101,-90.1883 95.1327,-93.4678"/>
</g>
<!-- Loss -->
<g id="node12" class="node">
<title>Loss</title>
<g id="a_node12"><a xlink:href="../nnweaver.html#nnweaver.losses.Loss" xlink:title="Abstract base class for classes that provide methods to compute the" target="_top">
<polygon fill="none" stroke="#000000" stroke-width=".5" points="150.5664,-54 96.5664,-54 96.5664,-36 150.5664,-36 150.5664,-54"/>
<text text-anchor="middle" x="123.5664" y="-42" font-family="Vera Sans, DejaVu Sans, Liberation Sans, Arial, Helvetica, sans" font-size="10.00" fill="#000000">Loss</text>
</a>
</g>
</g>
<!-- ABC&#45;&gt;Loss -->
<g id="edge8" class="edge">
<title>ABC&#45;&gt;Loss</title>
<path fill="none" stroke="#000000" stroke-width=".5" d="M36.2942,-107.8952C48.1445,-96.5634 69.5562,-76.9992 90,-63 93.2258,-60.7911 96.7521,-58.6423 100.2679,-56.6438"/>
<polygon fill="#000000" stroke="#000000" stroke-width=".5" points="101.4929,-57.9668 105.0266,-54.0201 99.803,-54.9018 101.4929,-57.9668"/>
</g>
<!-- HardSigmoid -->
<g id="node6" class="node">
<title>HardSigmoid</title>
<g id="a_node6"><a xlink:href="../nnweaver.html#nnweaver.activations.HardSigmoid" xlink:title="HardSigmoid" target="_top">
<polygon fill="none" stroke="#000000" stroke-width=".5" points="292.6819,-414 219.0759,-414 219.0759,-396 292.6819,-396 292.6819,-414"/>
<text text-anchor="middle" x="255.8789" y="-402" font-family="Vera Sans, DejaVu Sans, Liberation Sans, Arial, Helvetica, sans" font-size="10.00" fill="#000000">HardSigmoid</text>
</a>
</g>
</g>
<!-- Activation&#45;&gt;HardSigmoid -->
<g id="edge4" class="edge">
<title>Activation&#45;&gt;HardSigmoid</title>
<path fill="none" stroke="#000000" stroke-width=".5" d="M128.1052,-306.2124C137.5818,-324.4778 161.264,-365.381 193.1328,-387 199.3812,-391.2388 206.6272,-394.4904 213.9283,-396.9816"/>
<polygon fill="#000000" stroke="#000000" stroke-width=".5" points="213.6849,-398.7405 218.9801,-398.5876 214.7453,-395.405 213.6849,-398.7405"/>
</g>
<!-- HardTanH -->
<g id="node7" class="node">
<title>HardTanH</title>
<g id="a_node7"><a xlink:href="../nnweaver.html#nnweaver.activations.HardTanH" xlink:title="HardTanH" target="_top">
<polygon fill="none" stroke="#000000" stroke-width=".5" points="286.3984,-378 225.3594,-378 225.3594,-360 286.3984,-360 286.3984,-378"/>
<text text-anchor="middle" x="255.8789" y="-366" font-family="Vera Sans, DejaVu Sans, Liberation Sans, Arial, Helvetica, sans" font-size="10.00" fill="#000000">HardTanH</text>
</a>
</g>
</g>
<!-- Activation&#45;&gt;HardTanH -->
<g id="edge5" class="edge">
<title>Activation&#45;&gt;HardTanH</title>
<path fill="none" stroke="#000000" stroke-width=".5" d="M133.1049,-306.3655C145.7981,-318.3392 169.4111,-338.9584 193.1328,-351 201.574,-355.2849 211.1869,-358.6899 220.3083,-361.3331"/>
<polygon fill="#000000" stroke="#000000" stroke-width=".5" points="220.0286,-363.0716 225.3146,-362.7239 220.9655,-359.6993 220.0286,-363.0716"/>
</g>
<!-- Linear -->
<g id="node11" class="node">
<title>Linear</title>
<g id="a_node11"><a xlink:href="../nnweaver.html#nnweaver.activations.Linear" xlink:title="Linear" target="_top">
<polygon fill="none" stroke="#000000" stroke-width=".5" points="282.8789,-342 228.8789,-342 228.8789,-324 282.8789,-324 282.8789,-342"/>
<text text-anchor="middle" x="255.8789" y="-330" font-family="Vera Sans, DejaVu Sans, Liberation Sans, Arial, Helvetica, sans" font-size="10.00" fill="#000000">Linear</text>
</a>
</g>
</g>
<!-- Activation&#45;&gt;Linear -->
<g id="edge7" class="edge">
<title>Activation&#45;&gt;Linear</title>
<path fill="none" stroke="#000000" stroke-width=".5" d="M153.2599,-305.0791C174.1388,-310.7599 202.0642,-318.3579 223.5124,-324.1936"/>
<polygon fill="#000000" stroke="#000000" stroke-width=".5" points="223.2548,-325.9371 228.5389,-325.5612 224.1738,-322.5599 223.2548,-325.9371"/>
</g>
<!-- Rectifier -->
<g id="node17" class="node">
<title>Rectifier</title>
<g id="a_node17"><a xlink:href="../nnweaver.html#nnweaver.activations.Rectifier" xlink:title="Rectifier" target="_top">
<polygon fill="none" stroke="#000000" stroke-width=".5" points="282.8789,-306 228.8789,-306 228.8789,-288 282.8789,-288 282.8789,-306"/>
<text text-anchor="middle" x="255.8789" y="-294" font-family="Vera Sans, DejaVu Sans, Liberation Sans, Arial, Helvetica, sans" font-size="10.00" fill="#000000">Rectifier</text>
</a>
</g>
</g>
<!-- Activation&#45;&gt;Rectifier -->
<g id="edge13" class="edge">
<title>Activation&#45;&gt;Rectifier</title>
<path fill="none" stroke="#000000" stroke-width=".5" d="M153.2599,-297C174.1388,-297 202.0642,-297 223.5124,-297"/>
<polygon fill="#000000" stroke="#000000" stroke-width=".5" points="223.5389,-298.7501 228.5389,-297 223.5389,-295.2501 223.5389,-298.7501"/>
</g>
<!-- Sigmoid -->
<g id="node19" class="node">
<title>Sigmoid</title>
<g id="a_node19"><a xlink:href="../nnweaver.html#nnweaver.activations.Sigmoid" xlink:title="Sigmoid" target="_top">
<polygon fill="none" stroke="#000000" stroke-width=".5" points="282.8789,-270 228.8789,-270 228.8789,-252 282.8789,-252 282.8789,-270"/>
<text text-anchor="middle" x="255.8789" y="-258" font-family="Vera Sans, DejaVu Sans, Liberation Sans, Arial, Helvetica, sans" font-size="10.00" fill="#000000">Sigmoid</text>
</a>
</g>
</g>
<!-- Activation&#45;&gt;Sigmoid -->
<g id="edge16" class="edge">
<title>Activation&#45;&gt;Sigmoid</title>
<path fill="none" stroke="#000000" stroke-width=".5" d="M153.2599,-288.9209C174.1388,-283.2401 202.0642,-275.6421 223.5124,-269.8064"/>
<polygon fill="#000000" stroke="#000000" stroke-width=".5" points="224.1738,-271.4401 228.5389,-268.4388 223.2548,-268.0629 224.1738,-271.4401"/>
</g>
<!-- TanH -->
<g id="node20" class="node">
<title>TanH</title>
<g id="a_node20"><a xlink:href="../nnweaver.html#nnweaver.activations.TanH" xlink:title="TanH" target="_top">
<polygon fill="none" stroke="#000000" stroke-width=".5" points="282.8789,-234 228.8789,-234 228.8789,-216 282.8789,-216 282.8789,-234"/>
<text text-anchor="middle" x="255.8789" y="-222" font-family="Vera Sans, DejaVu Sans, Liberation Sans, Arial, Helvetica, sans" font-size="10.00" fill="#000000">TanH</text>
</a>
</g>
</g>
<!-- Activation&#45;&gt;TanH -->
<g id="edge17" class="edge">
<title>Activation&#45;&gt;TanH</title>
<path fill="none" stroke="#000000" stroke-width=".5" d="M133.1049,-287.6345C145.7981,-275.6608 169.4111,-255.0416 193.1328,-243 202.6855,-238.1508 213.7391,-234.4285 223.8825,-231.662"/>
<polygon fill="#000000" stroke="#000000" stroke-width=".5" points="224.3847,-233.3396 228.7783,-230.38 223.498,-229.9538 224.3847,-233.3396"/>
</g>
<!-- PlotLearningCurve -->
<g id="node16" class="node">
<title>PlotLearningCurve</title>
<g id="a_node16"><a xlink:href="../nnweaver.html#nnweaver.callbacks.PlotLearningCurve" xlink:title="PlotLearningCurve" target="_top">
<polygon fill="none" stroke="#000000" stroke-width=".5" points="305.2062,-198 206.5516,-198 206.5516,-180 305.2062,-180 305.2062,-198"/>
<text text-anchor="middle" x="255.8789" y="-186" font-family="Vera Sans, DejaVu Sans, Liberation Sans, Arial, Helvetica, sans" font-size="10.00" fill="#000000">PlotLearningCurve</text>
</a>
</g>
</g>
<!-- Callback&#45;&gt;PlotLearningCurve -->
<g id="edge12" class="edge">
<title>Callback&#45;&gt;PlotLearningCurve</title>
<path fill="none" stroke="#000000" stroke-width=".5" d="M150.9816,-160.4592C170.1824,-165.6834 196.1055,-172.7367 217.377,-178.5243"/>
<polygon fill="#000000" stroke="#000000" stroke-width=".5" points="217.1133,-180.2661 222.3974,-179.8902 218.0322,-176.8889 217.1133,-180.2661"/>
</g>
<!-- WriteFileCallback -->
<g id="node21" class="node">
<title>WriteFileCallback</title>
<g id="a_node21"><a xlink:href="../nnweaver.html#nnweaver.callbacks.WriteFileCallback" xlink:title="WriteFileCallback" target="_top">
<polygon fill="none" stroke="#000000" stroke-width=".5" points="302.4969,-162 209.2609,-162 209.2609,-144 302.4969,-144 302.4969,-162"/>
<text text-anchor="middle" x="255.8789" y="-150" font-family="Vera Sans, DejaVu Sans, Liberation Sans, Arial, Helvetica, sans" font-size="10.00" fill="#000000">WriteFileCallback</text>
</a>
</g>
</g>
<!-- Callback&#45;&gt;WriteFileCallback -->
<g id="edge18" class="edge">
<title>Callback&#45;&gt;WriteFileCallback</title>
<path fill="none" stroke="#000000" stroke-width=".5" d="M150.9816,-153C166.3415,-153 186.0033,-153 204.1444,-153"/>
<polygon fill="#000000" stroke="#000000" stroke-width=".5" points="204.216,-154.7501 209.2159,-153 204.2159,-151.2501 204.216,-154.7501"/>
</g>
<!-- GradientBasedOptimizer -->
<g id="node4" class="node">
<title>GradientBasedOptimizer</title>
<g id="a_node4"><a xlink:href="../nnweaver.html#nnweaver.optimizers.GradientBasedOptimizer" xlink:title="GradientBasedOptimizer" target="_top">
<polygon fill="none" stroke="#000000" stroke-width=".5" points="318.8721,-126 192.8857,-126 192.8857,-108 318.8721,-108 318.8721,-126"/>
<text text-anchor="middle" x="255.8789" y="-114" font-family="Vera Sans, DejaVu Sans, Liberation Sans, Arial, Helvetica, sans" font-size="10.00" fill="#000000">GradientBasedOptimizer</text>
</a>
</g>
</g>
<!-- SGD -->
<g id="node18" class="node">
<title>SGD</title>
<g id="a_node18"><a xlink:href="../nnweaver.html#nnweaver.optimizers.SGD" xlink:title="SGD" target="_top">
<polygon fill="none" stroke="#000000" stroke-width=".5" points="408.625,-126 354.625,-126 354.625,-108 408.625,-108 408.625,-126"/>
<text text-anchor="middle" x="381.625" y="-114" font-family="Vera Sans, DejaVu Sans, Liberation Sans, Arial, Helvetica, sans" font-size="10.00" fill="#000000">SGD</text>
</a>
</g>
</g>
<!-- GradientBasedOptimizer&#45;&gt;SGD -->
<g id="edge15" class="edge">
<title>GradientBasedOptimizer&#45;&gt;SGD</title>
<path fill="none" stroke="#000000" stroke-width=".5" d="M318.752,-117C329.3203,-117 339.8887,-117 349.2627,-117"/>
<polygon fill="#000000" stroke="#000000" stroke-width=".5" points="349.34,-118.7501 354.34,-117 349.3399,-115.2501 349.34,-118.7501"/>
</g>
<!-- Optimizer&#45;&gt;GradientBasedOptimizer -->
<g id="edge3" class="edge">
<title>Optimizer&#45;&gt;GradientBasedOptimizer</title>
<path fill="none" stroke="#000000" stroke-width=".5" d="M152.9308,-117C163.3231,-117 175.4913,-117 187.7499,-117"/>
<polygon fill="#000000" stroke="#000000" stroke-width=".5" points="188.0043,-118.7501 193.0042,-117 188.0042,-115.2501 188.0043,-118.7501"/>
</g>
<!-- L1L2Regularizer -->
<g id="node8" class="node">
<title>L1L2Regularizer</title>
<g id="a_node8"><a xlink:href="../nnweaver.html#nnweaver.regularizers.L1L2Regularizer" xlink:title="L1L2Regularizer" target="_top">
<polygon fill="none" stroke="#000000" stroke-width=".5" points="300.7586,-90 210.9992,-90 210.9992,-72 300.7586,-72 300.7586,-90"/>
<text text-anchor="middle" x="255.8789" y="-78" font-family="Vera Sans, DejaVu Sans, Liberation Sans, Arial, Helvetica, sans" font-size="10.00" fill="#000000">L1L2Regularizer</text>
</a>
</g>
</g>
<!-- Regularizer&#45;&gt;L1L2Regularizer -->
<g id="edge6" class="edge">
<title>Regularizer&#45;&gt;L1L2Regularizer</title>
<path fill="none" stroke="#000000" stroke-width=".5" d="M157.2968,-81C171.8799,-81 189.2558,-81 205.3284,-81"/>
<polygon fill="#000000" stroke="#000000" stroke-width=".5" points="205.7232,-82.7501 210.7232,-81 205.7231,-79.2501 205.7232,-82.7501"/>
</g>
<!-- Layer -->
<g id="node10" class="node">
<title>Layer</title>
<g id="a_node10"><a xlink:href="../nnweaver.html#nnweaver.nn.Layer" xlink:title="Layer" target="_top">
<polygon fill="none" stroke="#000000" stroke-width=".5" points="54,-162 0,-162 0,-144 54,-144 54,-162"/>
<text text-anchor="middle" x="27" y="-150" font-family="Vera Sans, DejaVu Sans, Liberation Sans, Arial, Helvetica, sans" font-size="10.00" fill="#000000">Layer</text>
</a>
</g>
</g>
<!-- MEE -->
<g id="node13" class="node">
<title>MEE</title>
<g id="a_node13"><a xlink:href="../nnweaver.html#nnweaver.losses.MEE" xlink:title="MEE" target="_top">
<polygon fill="none" stroke="#000000" stroke-width=".5" points="282.8789,-54 228.8789,-54 228.8789,-36 282.8789,-36 282.8789,-54"/>
<text text-anchor="middle" x="255.8789" y="-42" font-family="Vera Sans, DejaVu Sans, Liberation Sans, Arial, Helvetica, sans" font-size="10.00" fill="#000000">MEE</text>
</a>
</g>
</g>
<!-- Loss&#45;&gt;MEE -->
<g id="edge9" class="edge">
<title>Loss&#45;&gt;MEE</title>
<path fill="none" stroke="#000000" stroke-width=".5" d="M150.6611,-45C171.7992,-45 201.2264,-45 223.5868,-45"/>
<polygon fill="#000000" stroke="#000000" stroke-width=".5" points="223.8205,-46.7501 228.8204,-45 223.8204,-43.2501 223.8205,-46.7501"/>
</g>
<!-- MSE -->
<g id="node14" class="node">
<title>MSE</title>
<g id="a_node14"><a xlink:href="../nnweaver.html#nnweaver.losses.MSE" xlink:title="MSE" target="_top">
<polygon fill="none" stroke="#000000" stroke-width=".5" points="282.8789,-18 228.8789,-18 228.8789,0 282.8789,0 282.8789,-18"/>
<text text-anchor="middle" x="255.8789" y="-6" font-family="Vera Sans, DejaVu Sans, Liberation Sans, Arial, Helvetica, sans" font-size="10.00" fill="#000000">MSE</text>
</a>
</g>
</g>
<!-- Loss&#45;&gt;MSE -->
<g id="edge10" class="edge">
<title>Loss&#45;&gt;MSE</title>
<path fill="none" stroke="#000000" stroke-width=".5" d="M150.6611,-37.628C171.8884,-31.8524 201.4749,-23.8024 223.8695,-17.7092"/>
<polygon fill="#000000" stroke="#000000" stroke-width=".5" points="224.4553,-19.3635 228.8204,-16.3621 223.5364,-15.9863 224.4553,-19.3635"/>
</g>
<!-- NN -->
<g id="node15" class="node">
<title>NN</title>
<g id="a_node15"><a xlink:href="../nnweaver.html#nnweaver.nn.NN" xlink:title="NN" target="_top">
<polygon fill="none" stroke="#000000" stroke-width=".5" points="54,-198 0,-198 0,-180 54,-180 54,-198"/>
<text text-anchor="middle" x="27" y="-186" font-family="Vera Sans, DejaVu Sans, Liberation Sans, Arial, Helvetica, sans" font-size="10.00" fill="#000000">NN</text>
</a>
</g>
</g>
</g>
</svg>
