<?xml version="1.0" encoding="UTF-8"?>
<svg width="249px" height="249px" viewBox="0 0 249 249" version="1.1" xmlns="http://www.w3.org/2000/svg" xmlns:xlink="http://www.w3.org/1999/xlink">
    <!-- Generator: Sketch 48.2 (47327) - http://www.bohemiancoding.com/sketch -->
    <title>Artboard</title>
    <desc>Created with Sketch.</desc>
    <defs>
        <circle id="path-1" cx="142" cy="50" r="27"></circle>
        <circle id="path-2" cx="142" cy="124" r="27"></circle>
        <circle id="path-3" cx="142" cy="198" r="27"></circle>
        <circle id="path-4" cx="46" cy="87" r="27"></circle>
        <circle id="path-5" cx="46" cy="161" r="27"></circle>
    </defs>
    <g id="Page-1" stroke="none" stroke-width="1" fill="none" fill-rule="evenodd">
        <g id="Artboard">
            <path d="M45.5,160.5 L142.5,198.5" id="Line" stroke="#53595D" stroke-width="3" stroke-linecap="square"></path>
            <path d="M45.5,160.5 L142.5,123.5" id="Line-2" stroke="#53595D" stroke-width="3" stroke-linecap="square"></path>
            <path d="M45.5,160.5 L143.5,49.5" id="Line-3" stroke="#53595D" stroke-width="3" stroke-linecap="square"></path>
            <path d="M44.5,86.5 L142.5,198.5" id="Line-4" stroke="#53595D" stroke-width="3" stroke-linecap="square"></path>
            <path d="M44.5,86.5 L142.5,123.5" id="Line-5" stroke="#53595D" stroke-width="3" stroke-linecap="square"></path>
            <path d="M44.5,86.5 L143.5,49.5" id="Line-6" stroke="#53595D" stroke-width="3" stroke-linecap="square"></path>
            <g id="Last" transform="translate(136.000000, 91.000000)">
                <path d="M0.741573034,23.0157621 C14.3734044,22.5685044 25.2498089,22.9851895 33.3707865,24.2658175 C41.4917641,25.5464454 50.3906405,28.2481998 60.0674157,32.3710806" id="Line-8" stroke="#53595D" stroke-width="2" stroke-linecap="square" transform="translate(30.404494, 27.606593) scale(1, -1) translate(-30.404494, -27.606593) "></path>
                <path d="M60.0674157,27.2631579 C62.5247726,27.2631579 64.5168539,25.2837852 64.5168539,22.8421053 C64.5168539,20.4004253 62.5247726,18.4210526 60.0674157,18.4210526 C59.2122746,18.4210526 57.7291286,18.4210526 55.6179775,18.4210526 C55.6179775,20.5903201 55.6179775,22.0640043 55.6179775,22.8421053 C55.6179775,25.2837852 57.6100589,27.2631579 60.0674157,27.2631579 Z" id="Oval-3" fill="#53595D" transform="translate(60.067416, 22.842105) scale(1, -1) rotate(-22.000000) translate(-60.067416, -22.842105) "></path>
                <path d="M0,8.10526316 C15.7646555,10.3106777 26.7646555,12.6440111 33,15.1052632 C39.2353445,17.5665153 46.2802884,22.3559889 54.1348315,29.4736842" id="Line-9" stroke="#53595D" stroke-width="2" stroke-linecap="square" transform="translate(27.067416, 18.789474) scale(1, -1) translate(-27.067416, -18.789474) "></path>
                <path d="M57.5501252,9.87534771 C60.0074821,9.87534771 61.9995634,7.89597502 61.9995634,5.45429507 C61.9995634,3.01261513 60.0074821,1.03324244 57.5501252,1.03324244 C56.6949841,1.03324244 55.211838,1.03324244 53.100687,1.03324244 C53.100687,3.20250988 53.100687,4.67619409 53.100687,5.45429507 C53.100687,7.89597502 55.0927683,9.87534771 57.5501252,9.87534771 Z" id="Oval-3" fill="#53595D" transform="translate(57.550125, 5.454295) scale(1, -1) rotate(-5.000000) translate(-57.550125, -5.454295) "></path>
                <path d="M0.741573034,35.8025762 C14.3734044,35.3553185 25.2498089,35.7720036 33.3707865,37.0526316 C41.4917641,38.3332595 50.3906405,41.0350139 60.0674157,45.1578947" id="Line-8" stroke="#53595D" stroke-width="2" stroke-linecap="square"></path>
                <path d="M60.0674157,49.5789474 C62.5247726,49.5789474 64.5168539,47.5995747 64.5168539,45.1578947 C64.5168539,42.7162148 62.5247726,40.7368421 60.0674157,40.7368421 C59.2122746,40.7368421 57.7291286,40.7368421 55.6179775,40.7368421 C55.6179775,42.9061095 55.6179775,44.3797937 55.6179775,45.1578947 C55.6179775,47.5995747 57.6100589,49.5789474 60.0674157,49.5789474 Z" id="Oval-3" fill="#53595D" transform="translate(60.067416, 45.157895) rotate(-22.000000) translate(-60.067416, -45.157895) "></path>
                <path d="M0,38.5263158 C15.7646555,40.7317304 26.7646555,43.0650637 33,45.5263158 C39.2353445,47.9875679 46.2802884,52.7770416 54.1348315,59.8947368" id="Line-9" stroke="#53595D" stroke-width="2" stroke-linecap="square"></path>
                <path d="M57.5501252,66.9667576 C60.0074821,66.9667576 61.9995634,64.9873849 61.9995634,62.5457049 C61.9995634,60.104025 60.0074821,58.1246523 57.5501252,58.1246523 C56.6949841,58.1246523 55.211838,58.1246523 53.100687,58.1246523 C53.100687,60.2939197 53.100687,61.7676039 53.100687,62.5457049 C53.100687,64.9873849 55.0927683,66.9667576 57.5501252,66.9667576 Z" id="Oval-3" fill="#53595D" transform="translate(57.550125, 62.545705) rotate(-5.000000) translate(-57.550125, -62.545705) "></path>
            </g>
            <g id="Last" transform="translate(142.000000, 152.000000)">
                <path d="M1,32.2356772 C19.3823181,31.6286846 34.0489847,32.1941858 45,33.9321809 C55.9510153,35.6701759 67.9510153,39.3368426 81,44.9321809" id="Line-8" stroke="#53595D" stroke-width="2" stroke-linecap="square" transform="translate(41.000000, 38.466090) scale(1, -1) translate(-41.000000, -38.466090) "></path>
                <path d="M81,38 C84.3137085,38 87,35.3137085 87,32 C87,28.6862915 84.3137085,26 81,26 C79.8468552,26 77.8468552,26 75,26 C75,28.9440058 75,30.9440058 75,32 C75,35.3137085 77.6862915,38 81,38 Z" id="Oval-3" fill="#53595D" fill-rule="evenodd" transform="translate(81.000000, 32.000000) scale(1, -1) rotate(-22.000000) translate(-81.000000, -32.000000) "></path>
                <path d="M0,12 C21.258399,14.9930626 36.0917324,18.1597293 44.5,21.5 C52.9082676,24.8402707 62.4082676,31.3402707 73,41" id="Line-9" stroke="#53595D" stroke-width="2" stroke-linecap="square" transform="translate(36.500000, 26.500000) scale(1, -1) translate(-36.500000, -26.500000) "></path>
                <path d="M77.6054719,14.4022576 C80.9191804,14.4022576 83.6054719,11.7159661 83.6054719,8.4022576 C83.6054719,5.0885491 80.9191804,2.4022576 77.6054719,2.4022576 C76.4523271,2.4022576 74.4523271,2.4022576 71.6054719,2.4022576 C71.6054719,5.3462634 71.6054719,7.3462634 71.6054719,8.4022576 C71.6054719,11.7159661 74.2917634,14.4022576 77.6054719,14.4022576 Z" id="Oval-3" fill="#53595D" fill-rule="evenodd" transform="translate(77.605472, 8.402258) scale(1, -1) rotate(-5.000000) translate(-77.605472, -8.402258) "></path>
                <path d="M1,50.3034963 C19.3823181,49.6965037 34.0489847,50.2620049 45,52 C55.9510153,53.7379951 67.9510153,57.4046617 81,63" id="Line-8" stroke="#53595D" stroke-width="2" stroke-linecap="square"></path>
                <path d="M81,69 C84.3137085,69 87,66.3137085 87,63 C87,59.6862915 84.3137085,57 81,57 C79.8468552,57 77.8468552,57 75,57 C75,59.9440058 75,61.9440058 75,63 C75,66.3137085 77.6862915,69 81,69 Z" id="Oval-3" fill="#53595D" fill-rule="evenodd" transform="translate(81.000000, 63.000000) rotate(-22.000000) translate(-81.000000, -63.000000) "></path>
                <path d="M0,54 C21.258399,56.9930626 36.0917324,60.1597293 44.5,63.5 C52.9082676,66.8402707 62.4082676,73.3402707 73,83" id="Line-9" stroke="#53595D" stroke-width="2" stroke-linecap="square"></path>
                <path d="M77.6054719,92.5977424 C80.9191804,92.5977424 83.6054719,89.9114509 83.6054719,86.5977424 C83.6054719,83.2840339 80.9191804,80.5977424 77.6054719,80.5977424 C76.4523271,80.5977424 74.4523271,80.5977424 71.6054719,80.5977424 C71.6054719,83.5417482 71.6054719,85.5417482 71.6054719,86.5977424 C71.6054719,89.9114509 74.2917634,92.5977424 77.6054719,92.5977424 Z" id="Oval-3" fill="#53595D" fill-rule="evenodd" transform="translate(77.605472, 86.597742) rotate(-5.000000) translate(-77.605472, -86.597742) "></path>
            </g>
            <g id="Last" transform="translate(144.000000, 2.000000)">
                <path d="M1,32.2356772 C19.3823181,31.6286846 34.0489847,32.1941858 45,33.9321809 C55.9510153,35.6701759 67.9510153,39.3368426 81,44.9321809" id="Line-8" stroke="#53595D" stroke-width="2" stroke-linecap="square" transform="translate(41.000000, 38.466090) scale(1, -1) translate(-41.000000, -38.466090) "></path>
                <path d="M81,38 C84.3137085,38 87,35.3137085 87,32 C87,28.6862915 84.3137085,26 81,26 C79.8468552,26 77.8468552,26 75,26 C75,28.9440058 75,30.9440058 75,32 C75,35.3137085 77.6862915,38 81,38 Z" id="Oval-3" fill="#53595D" fill-rule="evenodd" transform="translate(81.000000, 32.000000) scale(1, -1) rotate(-22.000000) translate(-81.000000, -32.000000) "></path>
                <path d="M0,12 C21.258399,14.9930626 36.0917324,18.1597293 44.5,21.5 C52.9082676,24.8402707 62.4082676,31.3402707 73,41" id="Line-9" stroke="#53595D" stroke-width="2" stroke-linecap="square" transform="translate(36.500000, 26.500000) scale(1, -1) translate(-36.500000, -26.500000) "></path>
                <path d="M77.6054719,14.4022576 C80.9191804,14.4022576 83.6054719,11.7159661 83.6054719,8.4022576 C83.6054719,5.0885491 80.9191804,2.4022576 77.6054719,2.4022576 C76.4523271,2.4022576 74.4523271,2.4022576 71.6054719,2.4022576 C71.6054719,5.3462634 71.6054719,7.3462634 71.6054719,8.4022576 C71.6054719,11.7159661 74.2917634,14.4022576 77.6054719,14.4022576 Z" id="Oval-3" fill="#53595D" fill-rule="evenodd" transform="translate(77.605472, 8.402258) scale(1, -1) rotate(-5.000000) translate(-77.605472, -8.402258) "></path>
                <path d="M1,50.3034963 C19.3823181,49.6965037 34.0489847,50.2620049 45,52 C55.9510153,53.7379951 67.9510153,57.4046617 81,63" id="Line-8" stroke="#53595D" stroke-width="2" stroke-linecap="square"></path>
                <path d="M81,69 C84.3137085,69 87,66.3137085 87,63 C87,59.6862915 84.3137085,57 81,57 C79.8468552,57 77.8468552,57 75,57 C75,59.9440058 75,61.9440058 75,63 C75,66.3137085 77.6862915,69 81,69 Z" id="Oval-3" fill="#53595D" fill-rule="evenodd" transform="translate(81.000000, 63.000000) rotate(-22.000000) translate(-81.000000, -63.000000) "></path>
                <path d="M0,54 C21.258399,56.9930626 36.0917324,60.1597293 44.5,63.5 C52.9082676,66.8402707 62.4082676,73.3402707 73,83" id="Line-9" stroke="#53595D" stroke-width="2" stroke-linecap="square"></path>
                <path d="M77.6054719,92.5977424 C80.9191804,92.5977424 83.6054719,89.9114509 83.6054719,86.5977424 C83.6054719,83.2840339 80.9191804,80.5977424 77.6054719,80.5977424 C76.4523271,80.5977424 74.4523271,80.5977424 71.6054719,80.5977424 C71.6054719,83.5417482 71.6054719,85.5417482 71.6054719,86.5977424 C71.6054719,89.9114509 74.2917634,92.5977424 77.6054719,92.5977424 Z" id="Oval-3" fill="#53595D" fill-rule="evenodd" transform="translate(77.605472, 86.597742) rotate(-5.000000) translate(-77.605472, -86.597742) "></path>
            </g>
            <g id="Oval">
                <use fill="#85A2A4" fill-rule="evenodd" xlink:href="#path-1"></use>
                <circle stroke="#779193" stroke-width="5" cx="142" cy="50" r="24.5"></circle>
            </g>
            <g id="Oval">
                <use fill="#85A2A4" fill-rule="evenodd" xlink:href="#path-2"></use>
                <circle stroke="#779193" stroke-width="5" cx="142" cy="124" r="24.5"></circle>
            </g>
            <g id="Oval">
                <use fill="#85A2A4" fill-rule="evenodd" xlink:href="#path-3"></use>
                <circle stroke="#779193" stroke-width="5" cx="142" cy="198" r="24.5"></circle>
            </g>
            <g id="Oval">
                <use fill="#A6DFF6" fill-rule="evenodd" xlink:href="#path-4"></use>
                <circle stroke="#95C8DD" stroke-width="5" cx="46" cy="87" r="24.5"></circle>
            </g>
            <g id="Oval">
                <use fill="#A6DFF6" fill-rule="evenodd" xlink:href="#path-5"></use>
                <circle stroke="#95C8DD" stroke-width="5" cx="46" cy="161" r="24.5"></circle>
            </g>
        </g>
    </g>
</svg>